<svg width="146" height="64" viewBox="0 0 146 64" fill="none" xmlns="http://www.w3.org/2000/svg">
<path d="M16.456 63.76C10.8827 63.76 6.85467 62.012 4.372 58.516C1.88933 54.9693 0.648 49.7253 0.648 42.784V22.188C0.648 17.4253 1.12933 13.524 2.092 10.484C3.10533 7.39333 4.80267 5.03733 7.184 3.416C9.616 1.744 12.9347 0.907998 17.14 0.907998C22.8147 0.907998 26.8933 2.352 29.376 5.24C31.9093 8.128 33.176 12.6627 33.176 18.844V21.124H25.12V19.224C25.12 16.2853 24.9427 14.0307 24.588 12.46C24.2333 10.8387 23.4733 9.62266 22.308 8.812C21.1933 8.00133 19.5213 7.596 17.292 7.596C14.9107 7.596 13.1373 8.15333 11.972 9.268C10.8067 10.332 10.0467 11.776 9.692 13.6C9.388 15.424 9.236 17.856 9.236 20.896V43.696C9.236 48.408 9.79333 51.8027 10.908 53.88C12.0733 55.9067 14.2773 56.92 17.52 56.92C20.712 56.92 22.8907 55.8053 24.056 53.576C25.272 51.3467 25.88 47.7747 25.88 42.86V38.604H18.052V32.524H33.632V63H28.236L27.4 55.932C25.4747 61.1507 21.8267 63.76 16.456 63.76ZM53.9359 63.608C50.5412 63.608 47.9065 62.9747 46.0319 61.708C44.1572 60.3907 42.8399 58.4653 42.0799 55.932C41.3199 53.3987 40.9399 50.1053 40.9399 46.052V36.02C40.9399 29.94 41.8772 25.5067 43.7519 22.72C45.6772 19.8827 49.0719 18.464 53.9359 18.464C57.4825 18.464 60.1425 19.1987 61.9159 20.668C63.7399 22.1373 64.9305 24.2147 65.4879 26.9C66.0959 29.5347 66.3999 33.1067 66.3999 37.616V41.188H49.0719V50.004C49.0719 52.6893 49.4519 54.64 50.2119 55.856C51.0225 57.0213 52.2892 57.604 54.0119 57.604C55.7345 57.604 56.8999 57.0213 57.5079 55.856C58.1159 54.64 58.4199 52.816 58.4199 50.384V47.724H66.3239V49.396C66.3239 54.0067 65.3359 57.528 63.3599 59.96C61.3839 62.392 58.2425 63.608 53.9359 63.608ZM58.4199 36.78V32.828C58.4199 29.8387 58.1159 27.7107 57.5079 26.444C56.9505 25.1267 55.7345 24.468 53.8599 24.468C52.5425 24.468 51.5292 24.772 50.8199 25.38C50.1612 25.988 49.7052 27.0013 49.4519 28.42C49.1985 29.788 49.0719 31.7893 49.0719 34.424V36.78H58.4199ZM73.9922 19.072H82.1242V25.304C83.6442 22.8213 85.1895 21.0733 86.7602 20.06C88.3815 19.0467 90.0788 18.54 91.8522 18.54C92.3082 18.54 92.7388 18.5653 93.1442 18.616V27.584C91.5228 26.976 90.0282 26.672 88.6602 26.672C87.3428 26.672 86.1522 27.0013 85.0882 27.66C84.0748 28.268 83.0868 29.3573 82.1242 30.928V63H73.9922V19.072ZM109.886 63.608C103.553 63.608 100.386 60.112 100.386 53.12V24.468H95.7501V19.072H100.386V6.228H108.518V19.072H115.586V24.468H108.518V52.588C108.518 54.3613 108.797 55.6027 109.354 56.312C109.911 57.0213 110.975 57.376 112.546 57.376C113.559 57.376 114.547 57.3 115.51 57.148V63.152C113.483 63.456 111.609 63.608 109.886 63.608ZM133.569 63.608C130.124 63.608 127.464 62.924 125.589 61.556C123.714 60.1373 122.422 58.1867 121.713 55.704C121.054 53.1707 120.725 49.9787 120.725 46.128V36.02C120.725 32.068 121.054 28.8253 121.713 26.292C122.422 23.7587 123.714 21.8333 125.589 20.516C127.464 19.148 130.124 18.464 133.569 18.464C136.71 18.464 139.142 18.9707 140.865 19.984C142.638 20.9973 143.854 22.5173 144.513 24.544C145.222 26.52 145.577 29.104 145.577 32.296V34.88H138.205V32.22C138.205 29.332 137.876 27.3307 137.217 26.216C136.609 25.0507 135.418 24.468 133.645 24.468C132.277 24.468 131.264 24.772 130.605 25.38C129.946 25.988 129.49 26.976 129.237 28.344C128.984 29.712 128.857 31.7133 128.857 34.348V48.18C128.857 50.7133 129.009 52.664 129.313 54.032C129.617 55.3493 130.098 56.2867 130.757 56.844C131.466 57.3507 132.454 57.604 133.721 57.604C135.596 57.604 136.812 56.996 137.369 55.78C137.926 54.5133 138.205 52.588 138.205 50.004V46.432H145.577V49.472C145.577 54.2347 144.69 57.7813 142.917 60.112C141.194 62.4427 138.078 63.608 133.569 63.608Z" fill="white"/>
</svg>
