<svg width="43" height="19" viewBox="0 0 43 19" fill="none" xmlns="http://www.w3.org/2000/svg">
<path d="M4.632 18.22C3.01867 18.22 1.85267 17.714 1.134 16.702C0.415333 15.6753 0.056 14.1573 0.056 12.148V6.186C0.056 4.80733 0.195333 3.678 0.474 2.798C0.767333 1.90333 1.25867 1.22133 1.948 0.751999C2.652 0.267999 3.61267 0.0259993 4.83 0.0259993C6.47267 0.0259993 7.65333 0.443999 8.372 1.28C9.10533 2.116 9.472 3.42867 9.472 5.218V5.878H7.14V5.328C7.14 4.47733 7.08867 3.82467 6.986 3.37C6.88333 2.90067 6.66333 2.54867 6.326 2.314C6.00333 2.07933 5.51933 1.962 4.874 1.962C4.18467 1.962 3.67133 2.12333 3.334 2.446C2.99667 2.754 2.77667 3.172 2.674 3.7C2.586 4.228 2.542 4.932 2.542 5.812V12.412C2.542 13.776 2.70333 14.7587 3.026 15.36C3.36333 15.9467 4.00133 16.24 4.94 16.24C5.864 16.24 6.49467 15.9173 6.832 15.272C7.184 14.6267 7.36 13.5927 7.36 12.17V10.938H5.094V9.178H9.604V18H8.042L7.8 15.954C7.24267 17.4647 6.18667 18.22 4.632 18.22ZM15.4814 18.176C14.4988 18.176 13.7361 17.9927 13.1934 17.626C12.6508 17.2447 12.2694 16.6873 12.0494 15.954C11.8294 15.2207 11.7194 14.2673 11.7194 13.094V10.19C11.7194 8.43 11.9908 7.14667 12.5334 6.34C13.0908 5.51867 14.0734 5.108 15.4814 5.108C16.5081 5.108 17.2781 5.32067 17.7914 5.746C18.3194 6.17133 18.6641 6.77267 18.8254 7.55C19.0014 8.31267 19.0894 9.34667 19.0894 10.652V11.686H14.0734V14.238C14.0734 15.0153 14.1834 15.58 14.4034 15.932C14.6381 16.2693 15.0048 16.438 15.5034 16.438C16.0021 16.438 16.3394 16.2693 16.5154 15.932C16.6914 15.58 16.7794 15.052 16.7794 14.348V13.578H19.0674V14.062C19.0674 15.3967 18.7814 16.416 18.2094 17.12C17.6374 17.824 16.7281 18.176 15.4814 18.176ZM16.7794 10.41V9.266C16.7794 8.40067 16.6914 7.78467 16.5154 7.418C16.3541 7.03667 16.0021 6.846 15.4594 6.846C15.0781 6.846 14.7848 6.934 14.5794 7.11C14.3888 7.286 14.2568 7.57933 14.1834 7.99C14.1101 8.386 14.0734 8.96533 14.0734 9.728V10.41H16.7794ZM21.2872 5.284H23.6412V7.088C24.0812 6.36933 24.5285 5.86333 24.9832 5.57C25.4525 5.27667 25.9439 5.13 26.4572 5.13C26.5892 5.13 26.7139 5.13733 26.8312 5.152V7.748C26.3619 7.572 25.9292 7.484 25.5332 7.484C25.1519 7.484 24.8072 7.57933 24.4992 7.77C24.2059 7.946 23.9199 8.26133 23.6412 8.716V18H21.2872V5.284ZM31.6776 18.176C29.8442 18.176 28.9276 17.164 28.9276 15.14V6.846H27.5856V5.284H28.9276V1.566H31.2816V5.284H33.3276V6.846H31.2816V14.986C31.2816 15.4993 31.3622 15.8587 31.5236 16.064C31.6849 16.2693 31.9929 16.372 32.4476 16.372C32.7409 16.372 33.0269 16.35 33.3056 16.306V18.044C32.7189 18.132 32.1762 18.176 31.6776 18.176ZM38.5331 18.176C37.5358 18.176 36.7658 17.978 36.2231 17.582C35.6805 17.1713 35.3065 16.6067 35.1011 15.888C34.9105 15.1547 34.8151 14.2307 34.8151 13.116V10.19C34.8151 9.046 34.9105 8.10733 35.1011 7.374C35.3065 6.64067 35.6805 6.08333 36.2231 5.702C36.7658 5.306 37.5358 5.108 38.5331 5.108C39.4425 5.108 40.1465 5.25467 40.6451 5.548C41.1585 5.84133 41.5105 6.28133 41.7011 6.868C41.9065 7.44 42.0091 8.188 42.0091 9.112V9.86H39.8751V9.09C39.8751 8.254 39.7798 7.67467 39.5891 7.352C39.4131 7.01467 39.0685 6.846 38.5551 6.846C38.1591 6.846 37.8658 6.934 37.6751 7.11C37.4845 7.286 37.3525 7.572 37.2791 7.968C37.2058 8.364 37.1691 8.94333 37.1691 9.706V13.71C37.1691 14.4433 37.2131 15.008 37.3011 15.404C37.3891 15.7853 37.5285 16.0567 37.7191 16.218C37.9245 16.3647 38.2105 16.438 38.5771 16.438C39.1198 16.438 39.4718 16.262 39.6331 15.91C39.7945 15.5433 39.8751 14.986 39.8751 14.238V13.204H42.0091V14.084C42.0091 15.4627 41.7525 16.4893 41.2391 17.164C40.7405 17.8387 39.8385 18.176 38.5331 18.176Z" fill="#162B6F"/>
</svg>
